<mxfile host="app.diagrams.net" modified="2024-07-18T13:16:08.542Z" agent="Mozilla/5.0 (Macintosh; Intel Mac OS X 10_15_7) AppleWebKit/537.36 (KHTML, like Gecko) Chrome/126.0.0.0 Safari/537.36" etag="OgZtXfayGYBmAq4vycJe" version="24.6.4" type="github">
  <diagram name="Страница — 1" id="w-XadC4w1YWJLaA7918E">
    <mxGraphModel dx="1306" dy="714" grid="1" gridSize="10" guides="1" tooltips="1" connect="1" arrows="1" fold="1" page="1" pageScale="1" pageWidth="827" pageHeight="1169" math="0" shadow="0">
      <root>
        <mxCell id="0" />
        <mxCell id="1" parent="0" />
      </root>
    </mxGraphModel>
  </diagram>
</mxfile>
